<svg width="295" height="295" viewBox="0 0 295 295" fill="none" xmlns="http://www.w3.org/2000/svg">
<rect width="295" height="295" rx="20" fill="#2F2F2F"/>
<path d="M52.7976 204V91.2727H127.435V110.923H76.631V137.784H122.482V157.434H76.631V204H52.7976ZM218.214 127.711C217.444 125.032 216.361 122.665 214.967 120.61C213.572 118.519 211.866 116.757 209.848 115.326C207.866 113.859 205.591 112.739 203.023 111.969C200.491 111.198 197.684 110.813 194.601 110.813C188.84 110.813 183.776 112.244 179.409 115.106C175.079 117.968 171.703 122.133 169.282 127.601C166.86 133.032 165.649 139.674 165.649 147.526C165.649 155.379 166.841 162.058 169.226 167.562C171.612 173.066 174.988 177.268 179.354 180.167C183.721 183.029 188.877 184.46 194.821 184.46C200.215 184.46 204.821 183.506 208.637 181.598C212.49 179.653 215.426 176.919 217.444 173.396C219.499 169.874 220.526 165.709 220.526 160.902L225.37 161.617H196.307V143.673H243.479V157.874C243.479 167.782 241.387 176.295 237.204 183.414C233.021 190.496 227.26 195.964 219.921 199.817C212.582 203.633 204.179 205.541 194.711 205.541C184.143 205.541 174.859 203.211 166.86 198.551C158.86 193.854 152.622 187.194 148.145 178.57C143.705 169.91 141.485 159.636 141.485 147.746C141.485 138.609 142.806 130.463 145.448 123.308C148.127 116.115 151.87 110.024 156.677 105.033C161.484 100.043 167.08 96.2449 173.465 93.6396C179.85 91.0342 186.767 89.7315 194.216 89.7315C200.601 89.7315 206.545 90.6673 212.05 92.5387C217.554 94.3735 222.434 96.9788 226.691 100.355C230.984 103.731 234.489 107.749 237.204 112.409C239.92 117.033 241.663 122.133 242.433 127.711H218.214Z" fill="white"/>
</svg>
