<svg width="69" height="60" viewBox="0 0 69 60" fill="none" xmlns="http://www.w3.org/2000/svg">
<path d="M34.5 24.0625C32.5938 24.0625 30.7656 23.3053 29.4177 21.9573C28.0698 20.6094 27.3125 18.7812 27.3125 16.875C27.3125 14.9688 28.0698 13.1406 29.4177 11.7927C30.7656 10.4448 32.5938 9.6875 34.5 9.6875C36.4062 9.6875 38.2344 10.4448 39.5823 11.7927C40.9302 13.1406 41.6875 14.9688 41.6875 16.875C41.6875 17.8189 41.5016 18.7535 41.1404 19.6255C40.7792 20.4976 40.2497 21.2899 39.5823 21.9573C38.9149 22.6248 38.1226 23.1542 37.2505 23.5154C36.3785 23.8766 35.4439 24.0625 34.5 24.0625ZM34.5 -3.25C29.1625 -3.25 24.0436 -1.12969 20.2695 2.64448C16.4953 6.41865 14.375 11.5375 14.375 16.875C14.375 31.9688 34.5 54.25 34.5 54.25C34.5 54.25 54.625 31.9688 54.625 16.875C54.625 11.5375 52.5047 6.41865 48.7305 2.64448C44.9564 -1.12969 39.8375 -3.25 34.5 -3.25Z" fill="#414141"/>
</svg>
