<svg width="66" height="51" viewBox="0 0 66 51" fill="none" xmlns="http://www.w3.org/2000/svg">
<path d="M51.2084 59.1666H9.79171C3.28337 59.1666 -2.04163 53.8416 -2.04163 47.3333V23.6666C-2.04163 17.1583 3.28337 11.8333 9.79171 11.8333H51.2084C57.7167 11.8333 63.0417 17.1583 63.0417 23.6666V47.3333C63.0417 53.8416 57.7167 59.1666 51.2084 59.1666Z" fill="#414141"/>
<path d="M30.5 37.275C28.725 37.275 26.6541 36.6834 25.175 35.7959L10.3833 27.2167C8.90411 26.625 8.31245 24.5542 9.19995 23.3708C9.79162 21.8917 11.8624 21.3 13.0458 22.1875L27.8375 30.7667C29.3166 31.6542 31.3875 31.6542 32.8666 30.7667L47.6583 22.1875C49.1375 21.3 50.9125 21.8917 51.8 23.3708C52.6875 24.85 52.0958 26.625 50.6166 27.5125L35.825 36.0917C34.3458 36.6834 32.275 37.275 30.5 37.275Z" fill="#2F2F2F"/>
</svg>
