<svg width="78" height="69" viewBox="0 0 78 69" fill="none" xmlns="http://www.w3.org/2000/svg">
<path d="M63 9H3C-1.13625 9 -4.5 12.3637 -4.5 16.5V61.5C-4.5 65.6362 -1.13625 69 3 69H63C67.1363 69 70.5 65.6362 70.5 61.5V16.5C70.5 12.3637 67.1363 9 63 9ZM20.6813 24C24.9975 24 28.1813 27.1837 28.1813 31.5C28.1813 35.8162 24.9975 39 20.6813 39C16.365 39 13.1813 35.8162 13.1813 31.5C13.1813 27.1837 16.3613 24 20.6813 24ZM34.6125 54H6.75V52.2562C6.75 47.1075 13.035 41.8125 20.6813 41.8125C28.3275 41.8125 34.6125 47.1075 34.6125 52.2562V54ZM59.25 50.25H44.25V42.75H59.25V50.25ZM59.25 35.25H40.5V27.75H59.25V35.25Z" fill="#414141"/>
</svg>
