<svg width="30" height="30" viewBox="0 0 30 30" fill="none" xmlns="http://www.w3.org/2000/svg">
<path d="M15 18.75C9.475 18.75 5 20.9875 5 23.75V26.25H25V23.75C25 20.9875 20.525 18.75 15 18.75ZM10 11.25C10 12.5761 10.5268 13.8479 11.4645 14.7855C12.4021 15.7232 13.6739 16.25 15 16.25C16.3261 16.25 17.5979 15.7232 18.5355 14.7855C19.4732 13.8479 20 12.5761 20 11.25M14.375 2.5C14 2.5 13.75 2.7625 13.75 3.125V6.875H12.5V3.75C12.5 3.75 9.6875 4.825 9.6875 8.4375C9.6875 8.4375 8.75 8.6125 8.75 10H21.25C21.1875 8.6125 20.3125 8.4375 20.3125 8.4375C20.3125 4.825 17.5 3.75 17.5 3.75V6.875H16.25V3.125C16.25 2.7625 16.0125 2.5 15.625 2.5H14.375Z" fill="white"/>
</svg>
