<svg width="30" height="30" viewBox="0 0 30 30" fill="none" xmlns="http://www.w3.org/2000/svg">
<path fill-rule="evenodd" clip-rule="evenodd" d="M27.1875 3.75H24.375V1.875H22.5V3.75H7.5V1.875H5.625V3.75H2.8125L1.875 4.6875V27.1875L2.8125 28.125H27.1875L28.125 27.1875V4.6875L27.1875 3.75ZM26.25 26.25H3.75V9.375H26.25V26.25ZM26.25 7.5H3.75V5.625H26.25V7.5ZM7.5 15H5.625V16.875H7.5V15ZM5.625 18.75H7.5V20.625H5.625V18.75ZM7.5 22.5H5.625V24.375H7.5V22.5ZM11.25 15H13.125V16.875H11.25V15ZM13.125 18.75H11.25V20.625H13.125V18.75ZM11.25 22.5H13.125V24.375H11.25V22.5ZM13.125 11.25H11.25V13.125H13.125V11.25ZM16.875 15H18.75V16.875H16.875V15ZM18.75 18.75H16.875V20.625H18.75V18.75ZM16.875 22.5H18.75V24.375H16.875V22.5ZM18.75 11.25H16.875V13.125H18.75V11.25ZM22.5 15H24.375V16.875H22.5V15ZM24.375 18.75H22.5V20.625H24.375V18.75ZM22.5 11.25H24.375V13.125H22.5V11.25Z" fill="white"/>
</svg>
