<svg width="37" height="37" viewBox="0 0 37 37" fill="none" xmlns="http://www.w3.org/2000/svg">
<path d="M13.75 26.033H19.25C19.4323 26.033 19.6072 25.9605 19.7361 25.8316C19.8651 25.7027 19.9375 25.5278 19.9375 25.3455C19.9375 25.1631 19.8651 24.9883 19.7361 24.8593C19.6072 24.7304 19.4323 24.658 19.25 24.658H13.75C13.5677 24.658 13.3928 24.7304 13.2639 24.8593C13.1349 24.9883 13.0625 25.1631 13.0625 25.3455C13.0625 25.5278 13.1349 25.7027 13.2639 25.8316C13.3928 25.9605 13.5677 26.033 13.75 26.033Z" fill="white"/>
<path d="M22.9995 30.1634H10.0003C9.13762 30.112 8.33018 29.7219 7.75363 29.0782C7.17708 28.4344 6.87807 27.589 6.92166 26.7259V6.27417C6.87807 5.41107 7.17708 4.56569 7.75363 3.92193C8.33018 3.27817 9.13762 2.88813 10.0003 2.83667H22.9995C23.8622 2.88813 24.6696 3.27817 25.2462 3.92193C25.8227 4.56569 26.1217 5.41107 26.0782 6.27417V26.7259C26.1217 27.589 25.8227 28.4344 25.2462 29.0782C24.6696 29.7219 23.8622 30.112 22.9995 30.1634ZM10.0003 4.21167C9.50293 4.2642 9.04598 4.50959 8.72748 4.89518C8.40898 5.28077 8.25431 5.77584 8.29666 6.27417V26.7259C8.25431 27.2242 8.40898 27.7193 8.72748 28.1049C9.04598 28.4905 9.50293 28.7359 10.0003 28.7884H22.9995C23.4969 28.7359 23.9538 28.4905 24.2723 28.1049C24.5908 27.7193 24.7455 27.2242 24.7032 26.7259V6.27417C24.7455 5.77584 24.5908 5.28077 24.2723 4.89518C23.9538 4.50959 23.4969 4.2642 22.9995 4.21167H10.0003Z" fill="white"/>
<path fill-rule="evenodd" clip-rule="evenodd" d="M21.4375 28C21.4375 24.3756 24.3756 21.4375 28 21.4375C31.6244 21.4375 34.5625 24.3756 34.5625 28C34.5625 31.6244 31.6244 34.5625 28 34.5625C24.3756 34.5625 21.4375 31.6244 21.4375 28ZM28.75 25C28.75 25.4142 28.4142 25.75 28 25.75C27.5858 25.75 27.25 25.4142 27.25 25C27.25 24.5858 27.5858 24.25 28 24.25C28.4142 24.25 28.75 24.5858 28.75 25ZM28 27.0625C28.3106 27.0625 28.5625 27.3143 28.5625 27.625V31.375C28.5625 31.6856 28.3106 31.9375 28 31.9375C27.6893 31.9375 27.4375 31.6856 27.4375 31.375V27.625C27.4375 27.3143 27.6893 27.0625 28 27.0625Z" fill="white"/>
</svg>
