<svg width="69" height="59" viewBox="0 0 69 59" fill="none" xmlns="http://www.w3.org/2000/svg">
<path d="M5.75 44.625V38.875H63.25V44.625H5.75ZM9.05625 27.2312L5.31875 25.075L7.7625 20.7625H2.875V16.45H7.7625L5.31875 12.2812L9.05625 10.125L11.5 14.2937L13.9437 10.125L17.6812 12.2812L15.2375 16.45H20.125V20.7625H15.2375L17.6812 25.075L13.9437 27.2312L11.5 22.9187L9.05625 27.2312ZM32.0562 27.2312L28.3187 25.075L30.7625 20.7625H25.875V16.45H30.7625L28.3187 12.2812L32.0562 10.125L34.5 14.2937L36.9437 10.125L40.6812 12.2812L38.2375 16.45H43.125V20.7625H38.2375L40.6812 25.075L36.9437 27.2312L34.5 22.9187L32.0562 27.2312ZM55.0562 27.2312L51.3187 25.075L53.7625 20.7625H48.875V16.45H53.7625L51.3187 12.2812L55.0562 10.125L57.5 14.2937L59.9437 10.125L63.6812 12.2812L61.2375 16.45H66.125V20.7625H61.2375L63.6812 25.075L59.9437 27.2312L57.5 22.9187L55.0562 27.2312Z" fill="#414141"/>
</svg>
