<svg width="77" height="54" viewBox="0 0 77 54" fill="none" xmlns="http://www.w3.org/2000/svg">
<path d="M4.95907 25.3879C12.2254 41.2139 25.155 53.7965 41.2298 60.6177L43.8066 61.7658C49.7022 64.3927 56.6323 62.3972 60.2279 57.0376L63.5953 52.0186C64.6903 50.3867 64.357 48.1886 62.8275 46.9548L51.4074 37.7418C49.7303 36.3886 47.2638 36.7041 45.9803 38.4353L42.4476 43.2026C33.3825 38.7307 26.0225 31.3711 21.551 22.3059L26.3179 18.7731C28.0496 17.4899 28.3646 15.0234 27.0114 13.346L17.7983 1.92576C16.5647 0.396655 14.3674 0.0631029 12.7356 1.15726L7.68194 4.54588C2.2889 8.16199 0.304423 15.1495 2.99169 21.0605L4.95612 25.3815L4.95907 25.3879Z" fill="#414141"/>
</svg>
