<svg width="89" height="96" viewBox="0 0 89 96" fill="none" xmlns="http://www.w3.org/2000/svg">
<path fill-rule="evenodd" clip-rule="evenodd" d="M20.5938 24.1875C20.5938 10.9844 31.2969 0.28125 44.5 0.28125C57.703 0.28125 68.4062 10.9844 68.4062 24.1875C68.4062 37.3905 57.703 48.0937 44.5 48.0937C31.2969 48.0937 20.5938 37.3905 20.5938 24.1875ZM44.5 8.71875C35.9567 8.71875 29.0312 15.6444 29.0312 24.1875C29.0312 32.7306 35.9567 39.6562 44.5 39.6562C53.0432 39.6562 59.9687 32.7306 59.9687 24.1875C59.9687 15.6444 53.0432 8.71875 44.5 8.71875Z" fill="white"/>
<path fill-rule="evenodd" clip-rule="evenodd" d="M22 64.9687C15.0102 64.9687 9.34375 70.6354 9.34375 77.625V84.3092C9.34375 84.411 9.4175 84.4976 9.51796 84.5139C32.6859 88.2967 56.3142 88.2967 79.4819 84.5139C79.5826 84.4976 79.6563 84.411 79.6563 84.3092V77.625C79.6563 70.6354 73.9896 64.9687 67 64.9687H65.0825C64.9345 64.9687 64.7871 64.9924 64.646 65.0379L59.7775 66.6281C49.8505 69.8692 39.1495 69.8692 29.2224 66.6281L24.3539 65.0379C24.213 64.9924 24.0656 64.9687 23.9174 64.9687H22ZM0.90625 77.625C0.90625 65.9751 10.3502 56.5312 22 56.5312H23.9174C24.9552 56.5312 25.9864 56.6955 26.9729 57.0172L31.8415 58.6074C40.067 61.2928 48.9331 61.2928 57.1585 58.6074L62.027 57.0172C63.0136 56.6955 64.0446 56.5312 65.0825 56.5312H67C78.65 56.5312 88.0938 65.9751 88.0938 77.625V84.3092C88.0938 88.5459 85.0231 92.1583 80.8415 92.8412C56.7732 96.7708 32.2268 96.7708 8.1584 92.8412C3.97683 92.1583 0.90625 88.5459 0.90625 84.3092V77.625Z" fill="white"/>
</svg>
